2014007_C4_04_grf
version=1
nRows=34
nColumns=19
inDegrees=no
endheader
time	ground_force_1_vx	ground_force_1_vy	ground_force_1_vz	ground_force_1_px	ground_force_1_py	ground_force_1_pz	ground_force_1_mx	ground_force_1_my	ground_force_1_mz	ground_force_2_vx	ground_force_2_vy	ground_force_2_vz	ground_force_2_px	ground_force_2_py	ground_force_2_pz	ground_force_2_mx	ground_force_2_my	ground_force_2_mz
      0.94000000	    -28.01505104	    582.71104842	     21.67005390	     -0.16222690	     -0.00200000	      0.23500599	      0.00000000	      0.81940913	      0.00000000	      0.00000000	      0.00000000	      0.00000000	      0.00000000	      0.00000000	      0.00000000	      0.00000000	      0.00000000	      0.00000000
      0.94100000	    -27.74204127	    581.91603795	     21.56246454	     -0.16201541	     -0.00200000	      0.23495705	     -0.00000000	      0.80753731	     -0.00000000	      0.00000000	      0.00000000	      0.00000000	      0.00000000	      0.00000000	      0.00000000	      0.00000000	      0.00000000	      0.00000000
      0.94200000	    -27.46961638	    581.12994581	     21.45827264	     -0.16180378	     -0.00200000	      0.23490791	      0.00000000	      0.79571405	      0.00000000	      0.00000000	      0.00000000	      0.00000000	      0.00000000	      0.00000000	      0.00000000	      0.00000000	      0.00000000	      0.00000000
      0.94300000	    -27.19793189	    580.35504073	     21.35846838	     -0.16159195	     -0.00200000	      0.23485848	      0.00000000	      0.78396624	      0.00000000	      0.00000000	      0.00000000	      0.00000000	      0.00000000	      0.00000000	      0.00000000	      0.00000000	      0.00000000	      0.00000000
      0.94400000	    -26.92684345	    579.58915830	     21.26228511	     -0.16137996	     -0.00200000	      0.23480878	      0.00000000	      0.77229192	      0.00000000	      0.00000000	      0.00000000	      0.00000000	      0.00000000	      0.00000000	      0.00000000	      0.00000000	      0.00000000	      0.00000000
      0.94500000	    -26.65649727	    578.83454114	     21.17074504	     -0.16116774	     -0.00200000	      0.23475869	      0.00000000	      0.76072735	      0.00000000	      0.00000000	      0.00000000	      0.00000000	      0.00000000	      0.00000000	      0.00000000	      0.00000000	      0.00000000	      0.00000000
      0.94600000	    -26.38675086	    578.08905095	     21.08300179	     -0.16095534	     -0.00200000	      0.23470826	     -0.00000000	      0.74926594	      0.00000000	      0.00000000	      0.00000000	      0.00000000	      0.00000000	      0.00000000	      0.00000000	      0.00000000	      0.00000000	      0.00000000
      0.94700000	    -26.11775603	    577.35508680	     21.00007981	     -0.16074271	     -0.00200000	      0.23465734	     -0.00000000	      0.73795277	      0.00000000	      0.00000000	      0.00000000	      0.00000000	      0.00000000	      0.00000000	      0.00000000	      0.00000000	      0.00000000	      0.00000000
      0.94800000	    -25.84937029	    576.63051039	     20.92106193	     -0.16052990	     -0.00200000	      0.23460601	      0.00000000	      0.72677298	      0.00000000	      0.00000000	      0.00000000	      0.00000000	      0.00000000	      0.00000000	      0.00000000	      0.00000000	      0.00000000	      0.00000000
      0.94900000	    -25.58175754	    575.91779903	     20.84696665	     -0.16031686	     -0.00200000	      0.23455409	      0.00000000	      0.71577727	      0.00000000	      0.00000000	      0.00000000	      0.00000000	      0.00000000	      0.00000000	      0.00000000	      0.00000000	      0.00000000	      0.00000000
      0.95000000	    -25.31477250	    575.21473616	     20.77683210	     -0.16010365	     -0.00200000	      0.23450168	      0.00000000	      0.70494142	      0.00000000	      0.00000000	      0.00000000	      0.00000000	      0.00000000	      0.00000000	      0.00000000	      0.00000000	      0.00000000	      0.00000000
      0.95100000	    -25.04858281	    574.52390343	     20.71166933	     -0.15989022	     -0.00200000	      0.23444860	      0.00000000	      0.69431930	      0.00000000	      0.00000000	      0.00000000	      0.00000000	      0.00000000	      0.00000000	      0.00000000	      0.00000000	      0.00000000	      0.00000000
      0.95200000	    -24.78303015	    573.84297997	     20.65049410	     -0.15967662	     -0.00200000	      0.23439497	      0.00000000	      0.68387830	      0.00000000	      0.00000000	      0.00000000	      0.00000000	      0.00000000	      0.00000000	      0.00000000	      0.00000000	      0.00000000	      0.00000000
      0.95300000	    -24.51826353	    573.17459956	     20.59429958	     -0.15946284	     -0.00200000	      0.23434061	      0.00000000	      0.67367224	     -0.00000000	      0.00000000	      0.00000000	      0.00000000	      0.00000000	      0.00000000	      0.00000000	      0.00000000	      0.00000000	      0.00000000
      0.95400000	    -24.25410599	    572.51628488	     20.54207921	     -0.15924889	     -0.00200000	      0.23428565	      0.00000000	      0.66365926	      0.00000000	      0.00000000	      0.00000000	      0.00000000	      0.00000000	      0.00000000	      0.00000000	      0.00000000	      0.00000000	      0.00000000
      0.95500000	    -23.99067208	    571.87066972	     20.49480304	     -0.15903477	     -0.00200000	      0.23422994	      0.00000000	      0.65389177	      0.00000000	      0.00000000	      0.00000000	      0.00000000	      0.00000000	      0.00000000	      0.00000000	      0.00000000	      0.00000000	      0.00000000
      0.95600000	    -23.72779138	    571.23532891	     20.45145333	     -0.15882052	     -0.00200000	      0.23417359	      0.00000000	      0.64432367	      0.00000000	      0.00000000	      0.00000000	      0.00000000	      0.00000000	      0.00000000	      0.00000000	      0.00000000	      0.00000000	      0.00000000
      0.95700000	    -23.46556634	    570.61287016	     20.41296065	     -0.15860610	     -0.00200000	      0.23411645	      0.00000000	      0.63500859	      0.00000000	      0.00000000	      0.00000000	      0.00000000	      0.00000000	      0.00000000	      0.00000000	      0.00000000	      0.00000000	      0.00000000
      0.95800000	    -23.20383675	    570.00089437	     20.37830800	     -0.15839157	     -0.00200000	      0.23405865	     -0.00000000	      0.62589799	      0.00000000	      0.00000000	      0.00000000	      0.00000000	      0.00000000	      0.00000000	      0.00000000	      0.00000000	      0.00000000	      0.00000000
      0.95900000	    -22.94268459	    569.40213963	     20.34838274	     -0.15817692	     -0.00200000	      0.23400002	      0.00000000	      0.61704484	     -0.00000000	      0.00000000	      0.00000000	      0.00000000	      0.00000000	      0.00000000	      0.00000000	      0.00000000	      0.00000000	      0.00000000
      0.96000000	    -22.68195339	    568.81407648	     20.32216936	     -0.15796218	     -0.00200000	      0.23394073	      0.00000000	      0.60839834	      0.00000000	      0.00000000	      0.00000000	      0.00000000	      0.00000000	      0.00000000	      0.00000000	      0.00000000	      0.00000000	      0.00000000
      0.96100000	    -22.42169157	    568.23957339	     20.30049413	     -0.15774738	     -0.00200000	      0.23388059	      0.00000000	      0.60000956	      0.00000000	      0.00000000	      0.00000000	      0.00000000	      0.00000000	      0.00000000	      0.00000000	      0.00000000	      0.00000000	      0.00000000
      0.96200000	    -22.16175944	    567.67591834	     20.28236091	     -0.15753250	     -0.00200000	      0.23381978	     -0.00000000	      0.59182577	      0.00000000	      0.00000000	      0.00000000	      0.00000000	      0.00000000	      0.00000000	      0.00000000	      0.00000000	      0.00000000	      0.00000000
      0.96300000	    -21.90217562	    567.12590158	     20.26853636	     -0.15731753	     -0.00200000	      0.23375813	      0.00000000	      0.58389638	      0.00000000	      0.00000000	      0.00000000	      0.00000000	      0.00000000	      0.00000000	      0.00000000	      0.00000000	      0.00000000	      0.00000000
      0.96400000	    -21.64281905	    566.58683717	     20.25805861	     -0.15710248	     -0.00200000	      0.23369582	      0.00000000	      0.57616823	      0.00000000	      0.00000000	      0.00000000	      0.00000000	      0.00000000	      0.00000000	      0.00000000	      0.00000000	      0.00000000	      0.00000000
      0.96500000	    -21.38368040	    566.06151536	     20.25163099	     -0.15688735	     -0.00200000	      0.23363273	      0.00000000	      0.56868728	      0.00000000	      0.00000000	      0.00000000	      0.00000000	      0.00000000	      0.00000000	      0.00000000	      0.00000000	      0.00000000	      0.00000000
      0.96600000	    -21.12466097	    565.54719806	     20.24833113	     -0.15667214	     -0.00200000	      0.23356903	      0.00000000	      0.56139982	      0.00000000	      0.00000000	      0.00000000	      0.00000000	      0.00000000	      0.00000000	      0.00000000	      0.00000000	      0.00000000	      0.00000000
      0.96700000	    -20.86572349	    565.04670158	     20.24879232	     -0.15645687	     -0.00200000	      0.23350463	      0.00000000	      0.55434689	      0.00000000	      0.00000000	      0.00000000	      0.00000000	      0.00000000	      0.00000000	      0.00000000	      0.00000000	      0.00000000	      0.00000000
      0.96800000	    -20.60679719	    564.55731392	     20.25213689	     -0.15624156	     -0.00200000	      0.23343969	      0.00000000	      0.54747552	      0.00000000	      0.00000000	      0.00000000	      0.00000000	      0.00000000	      0.00000000	      0.00000000	      0.00000000	      0.00000000	      0.00000000
      0.96900000	    -20.34782805	    564.08179924	     20.25891840	     -0.15602623	     -0.00200000	      0.23337414	      0.00000000	      0.54082323	      0.00000000	      0.00000000	      0.00000000	      0.00000000	      0.00000000	      0.00000000	      0.00000000	      0.00000000	      0.00000000	      0.00000000
      0.97000000	    -20.08878440	    563.61744553	     20.26831657	     -0.15581090	     -0.00200000	      0.23330813	      0.00000000	      0.53434048	      0.00000000	      0.00000000	      0.00000000	      0.00000000	      0.00000000	      0.00000000	      0.00000000	      0.00000000	      0.00000000	      0.00000000
      0.97100000	    -19.82960291	    563.16722557	     20.28080970	     -0.15559564	     -0.00200000	      0.23324160	      0.00000000	      0.52806217	      0.00000000	      0.00000000	      0.00000000	      0.00000000	      0.00000000	      0.00000000	      0.00000000	      0.00000000	      0.00000000	      0.00000000
      0.97200000	    -19.57027987	    562.72837520	     20.29563338	     -0.15538047	     -0.00200000	      0.23317467	      0.00000000	      0.52194108	     -0.00000000	      0.00000000	      0.00000000	      0.00000000	      0.00000000	      0.00000000	      0.00000000	      0.00000000	      0.00000000	      0.00000000
      0.97300000	    -19.31073982	    562.30397150	     20.31319588	     -0.15516545	     -0.00200000	      0.23310725	      0.00000000	      0.51600824	      0.00000000	      0.00000000	      0.00000000	      0.00000000	      0.00000000	      0.00000000	      0.00000000	      0.00000000	      0.00000000	      0.00000000
